<svg width="60" height="20" viewBox="-5 0 72 72" fill="none" xmlns="http://www.w3.org/2000/svg%22%3E">
          <path d="M70.7069 54.7521L51.9509 35.9981L70.7009 17.2461C70.8856 17.0614 71.0321 16.8421 71.1321 16.6008C71.2321 16.3595 71.2835 16.1008 71.2835 15.8396C71.2835 15.5784 71.2321 15.3197 71.1321 15.0784C71.0321 14.8371 70.8856 14.6178 70.7009 14.4331L57.5659 1.29512C57.1927 0.922007 56.6866 0.712402 56.1589 0.712402C55.6312 0.712402 55.1251 0.922007 54.7519 1.29512L35.9989 20.0471L17.2489 1.29512C16.5029 0.548117 15.1819 0.548117 14.4349 1.29512L1.29688 14.4311C0.924257 14.8046 0.71499 15.3106 0.71499 15.8381C0.71499 16.3657 0.924257 16.8717 1.29688 17.2451L20.0499 35.9981L1.29388 54.7531C0.921501 55.1267 0.712402 55.6327 0.712402 56.1601C0.712402 56.6876 0.921501 57.1935 1.29388 57.5671L14.4299 70.7041C14.6145 70.8891 14.8338 71.0359 15.0753 71.136C15.3167 71.2361 15.5755 71.2877 15.8369 71.2877C16.0982 71.2877 16.3571 71.2361 16.5985 71.136C16.8399 71.0359 17.0592 70.8891 17.2439 70.7041L35.9989 51.9491L54.7549 70.7031C55.1439 71.0911 55.6509 71.2861 56.1619 71.2861C56.6729 71.2861 57.1809 71.0911 57.5699 70.7031L70.7079 57.5661C71.0809 57.1928 71.2903 56.6866 71.2901 56.1589C71.2899 55.6312 71.0801 55.1252 70.7069 54.7521V54.7521Z" fill="white" />
        </svg>